<svg xmlns="http://www.w3.org/2000/svg" viewBox="0 0 512 512">
  <defs>
    <linearGradient id="bg" x1="0" y1="0" x2="1" y2="1">
      <stop offset="0" stop-color="#111827" />
      <stop offset="1" stop-color="#0B1120" />
    </linearGradient>
    <linearGradient id="accent" x1="0" y1="0" x2="1" y2="1">
      <stop offset="0" stop-color="#6366F1" />
      <stop offset="0.55" stop-color="#22D3EE" />
      <stop offset="1" stop-color="#10B981" />
    </linearGradient>
  </defs>
  <rect width="512" height="512" rx="112" fill="url(#bg)" />
  <rect x="64" y="64" width="384" height="384" rx="96" fill="#0F172A" stroke="#1E293B" stroke-width="8" />
  <path d="M182 352c48 0 78-24 78-64 0-41-31-67-86-67h-42V160h44c77 0 121 42 121 110 0 69-49 112-125 112h-68v-30h78zm162-2h-33l-40-128-26 63h-34l42-104h29l62 169z" fill="url(#accent)" />
</svg>
